<svg width="877" height="191" viewBox="0 0 877 191" fill="none" xmlns="http://www.w3.org/2000/svg">
<path fill-rule="evenodd" clip-rule="evenodd" d="M227.029 181.691C213.206 181.691 200.94 178.983 190.228 173.567C179.689 167.987 171.396 160.355 165.349 150.672C159.302 140.988 156.278 129.828 156.278 117.191C156.278 104.553 159.216 93.3923 165.089 83.709C171.137 74.0253 179.43 66.4761 189.968 61.0595C200.681 55.4796 212.861 52.6895 226.511 52.6895C240.332 52.6895 252.512 55.4796 263.052 61.0595C273.763 66.4761 282.056 74.0253 287.931 83.709C293.978 93.3923 297.001 104.553 297.001 117.191C297.001 129.828 293.978 140.988 287.931 150.672C282.056 160.355 273.85 167.987 263.311 173.567C252.771 178.983 240.678 181.691 227.029 181.691ZM247.365 106.815C247.503 107.045 247.637 107.276 247.767 107.511C248.519 105.464 248.43 103.675 247.501 102.144C246.414 100.353 244.431 99.3336 241.551 99.0849C241.286 99.0588 241.246 98.6292 241.509 98.5868C244.181 98.1502 246.577 98.0453 248.696 98.2718C252.389 98.6175 254.94 99.9518 256.35 102.275C257.76 104.597 257.699 107.366 256.168 110.58C254.711 113.754 252.018 117.103 248.089 120.629C244.141 124.124 239.219 127.49 233.324 130.727C227.354 134.006 221.754 136.418 216.523 137.963C211.348 139.437 206.915 140.001 203.223 139.655C199.53 139.31 196.979 137.976 195.569 135.652C194.159 133.33 194.183 130.581 195.639 127.408C196.533 125.532 197.838 123.608 199.555 121.637C199.723 121.444 200.087 121.689 199.976 121.916C198.822 124.38 198.787 126.507 199.874 128.298C200.798 129.82 202.369 130.785 204.586 131.193L204.527 131.095C202.414 127.584 201.358 123.537 201.358 118.955C201.358 114.372 202.384 110.326 204.437 106.815C206.55 103.303 209.448 100.566 213.131 98.602C216.875 96.5789 221.131 95.567 225.901 95.567C230.731 95.567 234.988 96.5789 238.671 98.602C242.414 100.566 245.312 103.303 247.365 106.815ZM219.029 141.556C221.235 142.08 223.586 142.343 226.082 142.343C230.852 142.343 235.078 141.361 238.762 139.397C242.445 137.373 245.312 134.606 247.365 131.095C249.111 128.195 250.136 124.929 250.439 121.298C249.63 122.24 248.759 123.151 247.84 123.991C244.202 127.268 239.668 130.423 234.236 133.458C233.096 134.095 231.387 134.826 229.508 135.63C225.505 137.343 220.729 139.387 219.029 141.556Z" fill="white"/>
<path d="M487.346 59.173H443.287V182.266H489.936V116.781C489.936 110.052 491.579 105.128 494.862 102.009C498.14 98.8913 503.066 97.4962 509.631 97.8244C512.914 97.9885 515.59 98.8913 517.668 100.532C519.909 102.173 521.553 104.553 522.59 107.671C523.799 110.626 524.405 114.483 524.405 119.243V182.266H571.05V116.781C571.05 110.052 572.693 105.128 575.976 102.009C579.259 98.8913 584.184 97.4962 590.75 97.8244C594.032 97.9885 596.708 98.8913 598.782 100.532C601.028 102.173 602.671 104.553 603.704 107.671C604.917 110.626 605.519 114.483 605.519 119.243V182.266H652.168V111.857C652.168 92.8182 648.369 78.7856 640.767 69.7587C633.165 60.7318 621.416 56.2188 605.519 56.2188C596.536 56.2188 588.5 58.5985 581.418 63.3579C575.164 67.4156 570.054 73.201 566.087 80.7135C564.382 76.4823 562.235 72.8307 559.649 69.7587C552.047 60.7318 540.298 56.2188 524.405 56.2188C515.418 56.2188 507.385 58.5985 500.304 63.3579C497.079 65.4479 493.013 69.7692 489.165 75.0907L487.346 59.173Z" fill="white"/>
<path d="M694.461 49.2375C687.547 49.2375 681.503 46.7755 676.319 41.8516C671.134 36.9278 668.544 31.1837 668.544 24.6187C668.544 17.8896 671.134 12.1454 676.319 7.38578C681.503 2.46192 687.547 0 694.461 0C701.543 0 707.591 2.46192 712.599 7.38578C717.783 12.1454 720.374 17.8896 720.374 24.6187C720.374 31.1837 717.783 36.9278 712.599 41.8516C707.591 46.7755 701.543 49.2375 694.461 49.2375Z" fill="white"/>
<path d="M671.135 182.266V64.8747C671.135 61.8994 673.958 59.6448 677.04 60.1594C688.564 62.0857 700.354 62.0857 711.878 60.1594C714.96 59.6448 717.784 61.8994 717.784 64.8747V182.266H671.135Z" fill="white"/>
<path d="M367.009 185.221C358.37 185.221 350.336 184.071 342.907 181.774C335.477 179.477 329.085 176.276 323.729 172.173C318.546 167.905 314.918 162.818 312.845 156.909L349.904 143.123C351.805 147.554 354.483 150.426 357.938 151.739C361.394 152.888 364.417 153.463 367.009 153.463C369.773 153.463 372.019 152.888 373.747 151.739C375.474 150.59 376.339 148.949 376.339 146.815C376.339 144.518 375.129 142.63 372.71 141.153C370.291 139.512 366.577 138.117 361.566 136.968L350.941 134.506C339.365 131.716 330.64 126.874 324.766 119.981C318.892 113.088 315.954 105.045 315.954 95.8548C315.954 83.2168 320.792 73.4516 330.468 66.5585C340.316 59.6649 353.619 56.2188 370.378 56.2188C380.572 56.2188 389.123 57.4497 396.035 59.9117C403.118 62.2091 408.905 65.4916 413.399 69.7587C417.89 74.0258 421.345 78.9497 423.763 84.5304L387.741 97.578C386.532 94.2956 384.459 91.9155 381.521 90.4385C378.757 88.9616 375.302 88.2229 371.155 88.2229C368.218 88.2229 365.886 88.8794 364.158 90.1926C362.603 91.5054 361.826 93.0646 361.826 94.8697C361.826 96.8394 363.035 98.5627 365.454 100.04C368.045 101.353 371.932 102.666 377.116 103.978L387.741 106.44C395.688 108.246 402.6 111.036 408.474 114.811C414.35 118.422 418.927 122.935 422.21 128.351C425.493 133.768 427.132 140.004 427.132 147.062C427.132 155.104 424.628 161.997 419.62 167.741C414.608 173.322 407.61 177.671 398.626 180.789C389.642 183.744 379.103 185.221 367.009 185.221Z" fill="white"/>
<path fill-rule="evenodd" clip-rule="evenodd" d="M69.8846 56.2191C70.0006 56.2188 70.1166 56.2188 70.2325 56.2188C84.0539 56.2188 96.2339 59.0089 106.774 64.5888C117.485 70.0051 125.779 77.5546 131.652 87.2383C136.614 95.1839 139.541 104.124 140.431 114.059C140.479 114.598 140.029 115.057 139.46 115.057C138.974 115.057 138.561 114.717 138.485 114.261C137.209 106.658 134.499 99.7176 130.355 93.44C127.105 88.3715 123.107 83.927 118.361 80.1066L87.4492 103.996C88.9048 105.406 90.1482 107.019 91.1793 108.834C93.2087 112.36 94.2238 116.369 94.2238 120.862C94.2238 125.411 93.2087 129.42 91.1793 132.889C90.1425 134.744 88.8909 136.379 87.4246 137.794L123.896 165.979C118.968 171.74 112.995 176.548 105.978 180.403C95.5422 185.967 83.5683 188.749 70.0534 188.749C56.3677 188.749 44.2221 185.967 33.6151 180.403C23.1805 174.67 14.9689 166.83 8.98134 156.881C2.99378 146.933 0 135.467 0 122.484C0 122.182 0.00157017 121.881 0.00471051 121.581C0.00156945 121.295 0 121.007 0 120.719C0 108.082 2.93753 96.9216 8.8116 87.2383C14.8587 77.5546 23.152 70.0051 33.6905 64.5888C35.2579 63.7726 36.8568 63.0156 38.4871 62.3187C47.8067 58.2523 58.1578 56.2188 69.5404 56.2188C69.6551 56.2188 69.7699 56.2188 69.8846 56.2191ZM53.0552 110.897C51.4065 113.841 50.5824 117.212 50.5824 121.011C50.5824 124.763 51.4065 128.087 53.0552 130.983C54.7539 133.88 57.0771 136.135 60.0249 137.75C62.9727 139.412 66.3705 140.243 70.2174 140.243C74.0643 140.243 77.4616 139.412 80.4094 137.75C83.3572 136.135 85.6554 133.856 87.3041 130.912C89.0028 128.015 89.8523 124.667 89.8523 120.869C89.8523 117.117 89.0028 113.77 87.3041 110.825C85.6554 107.929 83.3572 105.65 80.4094 103.987C77.4616 102.373 74.0643 101.566 70.2174 101.566C66.3705 101.566 62.9727 102.397 60.0249 104.058C57.0771 105.72 54.7539 108 53.0552 110.897Z" fill="white"/>
<path fill-rule="evenodd" clip-rule="evenodd" d="M806.102 56.2191C806.221 56.2188 806.336 56.2188 806.451 56.2188C820.274 56.2188 832.453 59.0089 842.994 64.5888C853.702 70.0051 861.997 77.5546 867.869 87.2383C872.832 95.1839 875.758 104.124 876.652 114.059C876.697 114.598 876.25 115.057 875.68 115.057C875.193 115.057 874.779 114.717 874.705 114.261C873.426 106.658 870.717 99.7176 866.574 93.44C863.324 88.3715 859.325 83.927 854.579 80.1066L823.667 103.996C825.122 105.406 826.367 107.019 827.396 108.834C829.429 112.36 830.441 116.369 830.441 120.862C830.441 125.411 829.429 129.42 827.396 132.889C826.359 134.744 825.109 136.379 823.642 137.794L860.116 165.979C855.186 171.74 849.215 176.548 842.194 180.403C831.761 185.967 819.786 188.749 806.27 188.749C792.587 188.749 780.44 185.967 769.834 180.403C759.4 174.67 751.187 166.83 745.2 156.881C739.213 146.933 736.217 135.467 736.217 122.484C736.217 122.182 736.221 121.881 736.225 121.581C736.221 121.295 736.217 121.007 736.217 120.719C736.217 108.082 739.155 96.9216 745.032 87.2383C751.077 77.5546 759.371 70.0051 769.908 64.5888C771.477 63.7726 773.075 63.0156 774.706 62.3187C784.026 58.2523 794.377 56.2188 805.758 56.2188C805.873 56.2188 805.987 56.2188 806.102 56.2191ZM789.275 110.897C787.624 113.841 786.8 117.212 786.8 121.011C786.8 124.763 787.624 128.087 789.275 130.983C790.972 133.88 793.296 136.135 796.242 137.75C799.193 139.412 802.59 140.243 806.434 140.243C810.282 140.243 813.68 139.412 816.626 137.75C819.577 136.135 821.876 133.856 823.523 130.912C825.22 128.015 826.072 124.667 826.072 120.869C826.072 117.117 825.22 113.77 823.523 110.825C821.876 107.929 819.577 105.65 816.626 103.987C813.68 102.373 810.282 101.566 806.434 101.566C802.59 101.566 799.193 102.397 796.242 104.058C793.296 105.72 790.972 108 789.275 110.897Z" fill="white"/>
</svg>
