<svg width="48" height="48" viewBox="0 0 48 48" fill="none" xmlns="http://www.w3.org/2000/svg">
<path d="M20.4837 36.7471C23.8801 35.5962 27.5231 33.7525 30.4767 30.7989C37.0496 24.226 38.1259 14.2392 38.3022 11.1529C38.333 10.6131 37.9345 10.2147 37.3948 10.2455C34.3085 10.4218 24.3216 11.4981 17.7488 18.071C14.7952 21.0246 12.9515 24.6676 11.8006 28.064C13.6794 28.8948 15.4761 30.0223 17.0007 31.547C18.5254 33.0716 19.6529 34.8682 20.4837 36.7471Z" stroke="white" stroke-width="2" stroke-linecap="round"/>
<circle cx="25.3345" cy="23.2132" r="4" transform="rotate(45 25.3345 23.2132)" stroke="white" stroke-width="2"/>
<path d="M14.5199 22.2981C13.6964 21.862 12.7359 21.6808 11.7443 21.7746C10.7528 21.8685 9.76902 22.2337 8.90166 22.8299C8.0343 23.4262 7.3172 24.2302 6.82962 25.1531C6.34204 26.0759 6.10299 27.0817 6.1389 28.0593L11.8994 28.163" stroke="white" stroke-width="2"/>
<path d="M26.2496 34.0278C26.6858 34.8512 26.867 35.8118 26.7732 36.8033C26.6793 37.7948 26.3141 38.7787 25.7178 39.646C25.1216 40.5134 24.3176 41.2305 23.3947 41.718C22.4719 42.2056 21.466 42.4447 20.4885 42.4088L20.3848 36.6483" stroke="white" stroke-width="2"/>
<path d="M15.059 29.9084C14.3046 30.2653 13.5612 30.7437 12.92 31.3849C10.7732 33.5317 10.4516 36.8235 10.4038 37.8413C10.3954 38.0193 10.5282 38.1521 10.7062 38.1437C11.724 38.0959 15.0158 37.7743 17.1626 35.6276C17.8038 34.9863 18.2822 34.2429 18.6391 33.4885" stroke="white" stroke-width="2" stroke-linecap="round"/>
</svg>
